<svg width="14" height="15" viewBox="0 0 14 15" fill="none" xmlns="http://www.w3.org/2000/svg">
<circle cx="7" cy="7" r="7" fill="#011E41"/>
<path d="M8.96 10.15C9.12 10.15 9.24 10.1867 9.32 10.26C9.4 10.3333 9.44 10.4367 9.44 10.57C9.44 10.8567 9.28 11 8.96 11H5.62C5.29333 11 5.13 10.8567 5.13 10.57C5.13 10.4367 5.17 10.3333 5.25 10.26C5.33667 10.1867 5.46 10.15 5.62 10.15H6.77V5.16L5.74 5.81C5.67333 5.85 5.60667 5.87 5.54 5.87C5.42667 5.87 5.32667 5.82 5.24 5.72C5.16 5.62 5.12 5.50667 5.12 5.38C5.12 5.22667 5.18667 5.10667 5.32 5.02L6.86 4.04C7.01333 3.94667 7.16 3.9 7.3 3.9C7.44667 3.9 7.56667 3.94667 7.66 4.04C7.75333 4.13333 7.8 4.26 7.8 4.42V10.15H8.96Z" fill="white"/>
</svg>
