<svg width="150" height="36" viewBox="0 0 150 36" fill="none" xmlns="http://www.w3.org/2000/svg">
<mask id="mask0_30750_23" style="mask-type:luminance" maskUnits="userSpaceOnUse" x="0" y="0" width="150" height="36">
<path d="M150 0.773071H0V35.2269H150V0.773071Z" fill="white"/>
</mask>
<g mask="url(#mask0_30750_23)">
<path d="M0 35.2035H34.4305V0.773071H0V35.2035ZM22.0817 3.41251C28.1618 5.41565 32.5688 11.1659 32.5924 18.0001C32.6159 24.7165 28.3032 30.4667 22.0817 32.5877V3.41251ZM17.2035 2.63482C18.3111 2.63482 19.4659 2.77622 20.4556 2.96475C20.4556 10.7652 12.9144 17.1753 5.11391 17.1753H1.86175C2.40377 9.18627 9.02594 2.63482 17.2035 2.63482ZM5.13747 18.8014C12.9144 18.8014 20.4556 25.2114 20.4556 33.0119C19.4894 33.2004 18.2404 33.3654 17.2035 33.3654C9.00238 33.3654 2.16811 26.7668 1.86175 18.8014H5.13747Z" fill="#011E41"/>
<path d="M45.9545 21.0174V18.8492H53.1186V16.092H45.9545V12.0621H53.5664V9.28125H43.0087V15.2199V20.8995C43.0087 23.8217 44.2577 25.8484 47.18 26.2491C47.2506 26.2726 47.2978 26.2726 47.3449 26.2726H47.3921C47.6984 26.2962 48.0048 26.3198 48.3111 26.3198H53.7314V23.5625H48.3347C47.4628 23.5625 45.9545 23.1147 45.9545 21.0174Z" fill="#011E41"/>
<path d="M55.876 17.3409V26.3198H58.7982V17.2703V9.28125H55.876V17.3409Z" fill="#011E41"/>
<path d="M67.2114 13.6172C63.5115 13.6172 60.7307 16.1624 60.7307 20.1451V20.2394C60.7307 24.1279 63.4172 26.6259 67.2821 26.6259C69.1439 26.6259 70.8878 26.1074 72.4903 24.4107L70.7229 22.6902C69.7801 23.633 68.8846 24.1043 67.3764 24.1043C65.1847 24.1043 63.7471 22.8317 63.6529 20.8521H73.2915C73.3387 20.3572 73.3387 19.8152 73.3387 19.8152C73.3387 16.3981 70.9113 13.6172 67.2114 13.6172ZM63.7236 18.8254C63.8415 17.3172 65.3732 16.1152 67.2114 16.1152C68.9318 16.1152 70.3222 17.3407 70.3222 18.8254H63.7236Z" fill="#011E41"/>
<path d="M81.587 16.233C82.9067 16.233 83.8964 16.7279 84.7213 17.5763L86.5359 15.691C85.1219 14.1592 83.4251 13.5465 81.5634 13.5465C77.8399 13.5465 74.8234 16.3273 74.8234 20.0979C74.8234 23.8685 77.8163 26.6494 81.5634 26.6494C83.4015 26.6494 85.0983 26.0367 86.5359 24.5049L84.7213 22.6196C83.8964 23.468 82.9067 23.9629 81.587 23.9629C79.4188 23.9629 77.7692 22.3132 77.7692 20.0743C77.7692 17.8355 79.4188 16.233 81.587 16.233Z" fill="#011E41"/>
<path d="M91.2962 21.0174V16.6576H93.9591V13.9945H91.2962V9.28125H88.3738V15.3849V21.1823C88.4683 23.9395 89.7177 25.8484 92.5456 26.2255C92.6162 26.2491 92.663 26.2491 92.7106 26.2491H92.7574C93.0635 26.2726 93.3697 26.2962 93.6768 26.2962H93.983V23.5389H93.6768C92.7812 23.5625 91.2962 23.1147 91.2962 21.0174Z" fill="#011E41"/>
<path d="M99.3326 15.8323V13.9941H96.4341V20.0271V26.3193H99.3326V19.8385C99.3326 17.8119 100.629 16.5392 102.656 16.5392C103.127 16.5392 103.527 16.5864 103.88 16.6571V13.8291C103.763 13.8055 103.315 13.7584 103.008 13.7584C101.241 13.7584 99.9211 14.5597 99.3326 15.8323Z" fill="#011E41"/>
<path d="M111.069 13.6414C107.321 13.6414 104.352 16.4693 104.352 20.1693C104.352 23.8692 107.345 26.6971 111.069 26.6971C114.792 26.6971 117.785 23.8692 117.785 20.1693C117.785 16.4693 114.792 13.6414 111.069 13.6414ZM111.069 24.0342C108.9 24.0342 107.251 22.3374 107.251 20.1693C107.251 18.0012 108.877 16.3044 111.069 16.3044C113.213 16.3044 114.886 18.0012 114.886 20.1693C114.886 22.3374 113.213 24.0342 111.069 24.0342Z" fill="#011E41"/>
<path d="M119.599 17.0581V26.3198H122.522V17.176V9.28125H119.599V17.0581Z" fill="#011E41"/>
<path d="M133.103 21.1593C133.103 23.1153 131.949 23.9401 130.417 23.9401C128.885 23.9401 127.73 23.1153 127.73 21.1829V14.0187H124.761V17.5772V21.4421C124.761 24.9535 127.33 26.6503 130.393 26.6503C133.481 26.6503 136.073 24.9299 136.073 21.3714V17.5772V14.0187H133.127V21.1593H133.103Z" fill="#011E41"/>
<path d="M147.172 22.3848L145.31 19.7924L147.62 16.6817L149.576 14.0187H146.371L143.708 17.6951L141.021 14.0187H137.84L139.654 16.4931L142.106 19.816L139.537 23.3745L137.416 26.3204H140.574L143.708 21.9841L146.842 26.3204H150L147.172 22.3848Z" fill="#011E41"/>
</g>
</svg>
