<svg width="113" height="26" viewBox="0 0 113 26" fill="none" xmlns="http://www.w3.org/2000/svg">
<mask id="mask0_30750_80" style="mask-type:luminance" maskUnits="userSpaceOnUse" x="0" y="0" width="113" height="26">
<path d="M113 0H0V25.8404H113V0Z" fill="white"/>
</mask>
<g mask="url(#mask0_30750_80)">
<path d="M0 25.8228H25.9376V0H0V25.8228ZM16.6349 1.97958C21.2152 3.48193 24.5352 7.79462 24.5529 12.9203C24.5706 17.9576 21.3217 22.2702 16.6349 23.861V1.97958ZM12.96 1.39631C13.7944 1.39631 14.6643 1.50236 15.4099 1.64376C15.4099 7.4941 9.72885 12.3017 3.85248 12.3017H1.40252C1.81084 6.3099 6.79954 1.39631 12.96 1.39631ZM3.87023 13.5212C9.72885 13.5212 15.4099 18.3287 15.4099 24.1791C14.682 24.3205 13.7411 24.4442 12.96 24.4442C6.78179 24.4442 1.63331 19.4953 1.40252 13.5212H3.87023Z" fill="#011E41"/>
<path d="M34.6191 15.1832V13.5571H40.016V11.4892H34.6191V8.46674H40.3534V6.3811H32.3999V10.8351V15.0948C32.3999 17.2864 33.3408 18.8065 35.5423 19.107C35.5955 19.1246 35.631 19.1246 35.6665 19.1246H35.7021C35.9328 19.1423 36.1636 19.16 36.3944 19.16H40.4777V17.092H36.4122C35.7553 17.092 34.6191 16.7562 34.6191 15.1832Z" fill="#011E41"/>
<path d="M42.0933 12.4258V19.16H44.2947V12.3729V6.3811H42.0933V12.4258Z" fill="#011E41"/>
<path d="M50.6326 9.63312C47.8454 9.63312 45.7505 11.542 45.7505 14.529V14.5998C45.7505 17.5161 47.7743 19.3896 50.6859 19.3896C52.0884 19.3896 53.4022 19.0008 54.6094 17.7282L53.2779 16.4379C52.5677 17.145 51.8931 17.4984 50.7569 17.4984C49.1058 17.4984 48.0228 16.544 47.9519 15.0593H55.213C55.2485 14.6881 55.2485 14.2816 55.2485 14.2816C55.2485 11.7188 53.4199 9.63312 50.6326 9.63312ZM48.0051 13.5393C48.094 12.4081 49.2478 11.5066 50.6326 11.5066C51.9287 11.5066 52.9761 12.4257 52.9761 13.5393H48.0051Z" fill="#011E41"/>
<path d="M61.4622 11.595C62.4564 11.595 63.2019 11.9661 63.8234 12.6024L65.1904 11.1885C64.1251 10.0396 62.8469 9.58008 61.4444 9.58008C58.6394 9.58008 56.3669 11.6657 56.3669 14.4936C56.3669 17.3216 58.6216 19.4073 61.4444 19.4073C62.8291 19.4073 64.1074 18.9477 65.1904 17.7989L63.8234 16.3849C63.2019 17.0212 62.4564 17.3924 61.4622 17.3924C59.8288 17.3924 58.5861 16.1551 58.5861 14.4759C58.5861 12.7968 59.8288 11.595 61.4622 11.595Z" fill="#011E41"/>
<path d="M68.7765 15.1832V11.9134H70.7825V9.91604H68.7765V6.3811H66.575V10.9588V15.3069C66.6461 17.3748 67.5874 18.8065 69.7177 19.0893C69.7709 19.107 69.8061 19.107 69.842 19.107H69.8773C70.1079 19.1246 70.3385 19.1423 70.5699 19.1423H70.8005V17.0743H70.5699C69.8952 17.092 68.7765 16.7562 68.7765 15.1832Z" fill="#011E41"/>
<path d="M74.8306 11.2944V9.91579H72.647V14.4405V19.1597H74.8306V14.2991C74.8306 12.7791 75.8072 11.8246 77.3342 11.8246C77.689 11.8246 77.9904 11.86 78.2563 11.913V9.79204C78.1681 9.77434 77.8306 9.73901 77.5994 9.73901C76.2682 9.73901 75.2739 10.34 74.8306 11.2944Z" fill="#011E41"/>
<path d="M83.672 9.65125C80.8485 9.65125 78.6118 11.7722 78.6118 14.5472C78.6118 17.3221 80.8665 19.443 83.672 19.443C86.4766 19.443 88.7313 17.3221 88.7313 14.5472C88.7313 11.7722 86.4766 9.65125 83.672 9.65125ZM83.672 17.4458C82.038 17.4458 80.7957 16.1732 80.7957 14.5472C80.7957 12.9211 82.0207 11.6485 83.672 11.6485C85.2871 11.6485 86.5474 12.9211 86.5474 14.5472C86.5474 16.1732 85.2871 17.4458 83.672 17.4458Z" fill="#011E41"/>
<path d="M90.0979 12.2137V19.16H92.2999V12.3022V6.3811H90.0979V12.2137Z" fill="#011E41"/>
<path d="M100.271 15.2897C100.271 16.7567 99.4016 17.3753 98.2475 17.3753C97.0934 17.3753 96.2233 16.7567 96.2233 15.3074V9.9342H93.9866V12.6031V15.5018C93.9866 18.1353 95.9219 19.4079 98.2294 19.4079C100.556 19.4079 102.508 18.1176 102.508 15.4487V12.6031V9.9342H100.289V15.2897H100.271Z" fill="#011E41"/>
<path d="M110.87 16.2088L109.467 14.2645L111.207 11.9315L112.681 9.9342H110.266L108.26 12.6915L106.236 9.9342H103.839L105.206 11.79L107.053 14.2822L105.118 16.9511L103.52 19.1605H105.899L108.26 15.9083L110.621 19.1605H113L110.87 16.2088Z" fill="#011E41"/>
</g>
</svg>
